<?xml version="1.0" standalone="no"?>
<!DOCTYPE svg PUBLIC "-//W3C//DTD SVG 20010904//EN"
 "http://www.w3.org/TR/2001/REC-SVG-20010904/DTD/svg10.dtd">
<svg version="1.0" xmlns="http://www.w3.org/2000/svg"
 width="980.000000pt" height="982.000000pt" viewBox="0 0 980.000000 982.000000"
 preserveAspectRatio="xMidYMid meet">

<g transform="translate(0.000000,982.000000) scale(0.100000,-0.100000)"
fill="#000000" stroke="none">
<path d="M3603 9792 c-140 -50 -237 -169 -266 -327 l-13 -68 -669 -434 c-1457
-943 -1924 -1241 -2041 -1299 -65 -33 -75 -35 -110 -25 -50 14 -129 14 -196 0
-179 -37 -302 -194 -302 -384 -1 -72 3 -89 33 -150 23 -46 54 -89 93 -126 l58
-55 0 -3088 0 -3088 -59 -63 c-132 -142 -160 -300 -81 -461 74 -151 262 -242
421 -204 80 19 127 46 200 116 l66 64 2800 0 2800 0 26 -39 c31 -46 117 -101
207 -131 94 -32 177 -25 275 24 83 41 129 89 169 177 35 75 51 182 38 244 -8
40 -7 55 5 80 54 105 364 532 1706 2355 330 448 602 816 603 818 1 2 35 8 76
13 144 20 267 102 329 220 21 39 24 57 24 164 0 144 -14 180 -101 268 -54 55
-158 117 -196 117 -11 0 -30 19 -48 48 -108 167 -1651 3406 -1653 3467 0 11
10 58 23 105 18 66 21 100 17 153 -16 190 -166 334 -358 345 -97 6 -157 -9
-232 -55 l-59 -35 -451 142 c-249 79 -549 173 -667 210 -976 306 -1882 596
-1918 613 -36 16 -48 29 -67 74 -32 72 -127 166 -202 200 -77 36 -203 42 -280
15z m614 -733 c207 -63 1111 -347 2203 -692 l645 -203 38 -75 c53 -104 94
-142 213 -200 l100 -48 211 -428 c234 -474 339 -692 999 -2082 250 -525 454
-960 454 -967 0 -8 -12 -53 -26 -101 -23 -78 -25 -99 -20 -185 l6 -96 -79
-119 c-117 -179 -672 -937 -1923 -2633 l-313 -425 -82 -17 c-99 -20 -203 -69
-257 -122 -28 -26 -56 -42 -86 -49 -28 -6 -1073 -11 -2802 -14 l-2757 -4 -77
73 -77 73 7 3000 c4 1650 10 3043 14 3095 7 95 7 95 50 139 52 54 108 165 125
251 l13 64 514 333 c1565 1014 2019 1303 2180 1391 72 39 77 40 123 30 27 -5
85 -8 130 -6 70 3 93 8 157 40 41 20 85 37 97 37 12 1 111 -26 220 -60z"/>
</g>
</svg>
